<svg
  enable-background="new 0 0 323.234 485.72"
  height="486"
  viewBox="0 0 323.234 485.72"
  width="324"
  xmlns="http://www.w3.org/2000/svg"
>
  <path
    d="m118.34 144.893h-118.34v256.615h93.475c40.119 0 70.133-36.824 62.04-76.119z"
    fill="#ffeea6"
  />
  <path d="m98.904 339.198-2.722 6.45 25.585 11.041 2.722-6.449z" fill="#050c04" />
  <path
    d="m267.288 280.656-174.957 6.21-2.2-61.991 205.952-7.31 1.1 30.996c.608 17.117-12.777 31.487-29.895 32.095z"
    fill="#ffeea6"
  />
  <path
    d="m164.23 485.72c-26.829 0-48.578-21.749-48.578-48.578v-58.755c0-26.829 21.749-48.578 48.578-48.578 26.829 0 48.578 21.749 48.578 48.578v58.755c0 26.829-21.749 48.578-48.578 48.578z"
    fill="#108e82"
  />
  <g fill="#ffeea6">
    <path
      d="m131.45 435.491c-1.69-54.904-46.725-98.895-102.039-98.895h-29.411v119.529c0 16.345 13.25 29.595 29.595 29.595h147.894c0-26.372-20.245-48.002-46.039-50.229z"
    />
    <path
      d="m159.208 366.271-93.221-42.065 25.513-56.54 93.221 42.065c15.613 7.045 22.559 25.414 15.513 41.027-7.045 15.612-25.413 22.558-41.026 15.513z"
    />
    <path
      d="m323.234 253.714v9.192h-87.83v-9.192c0-24.254 19.661-43.915 43.915-43.915 24.254 0 43.915 19.661 43.915 43.915z"
    />
  </g>
  <path
    d="m186.701 333.828 16.217 7.599c.291-2.615.241-5.228-.124-7.783l-13.132-6.159z"
    fill="#050c04"
  />
  <path
    d="m178.452 338.995-2.961 6.343 22.071 10.305c1.048-1.518 1.981-3.145 2.767-4.886.193-.429.372-.861.544-1.293z"
    fill="#050c04"
  />
  <path
    d="m193.098 361.913-16.127-7.619-2.961 6.343 11.974 5.68c2.545-1.136 4.941-2.612 7.114-4.404z"
    fill="#050c04"
  />
  <path
    d="m168.894 168.511c0 49.798-37.808 90.166-84.447 90.166s-84.447-40.369-84.447-90.166c0-13.551.015-29.356.297-38.316 1.06-33.618 50.203-51.851 84.15-51.851 46.638 0 84.447 40.369 84.447 90.167z"
    fill="#ee442b"
  />
  <path d="m118.34 50.497-47.103-50.497-24.127 78.344z" fill="#ffeea6" />
  <path
    d="m186.222 126.789c-5.43-47.106-45.893-83.546-94.671-82.591-50.099.981-90.83 41.944-91.541 92.048-.741 52.218 41.366 94.781 93.414 94.781 13.302 0 25.951-2.786 37.405-7.797h24.87c15.824 0 29.188-10.511 33.506-24.931 12.69-4.933 21.688-17.258 21.688-31.692v-18.425l-15.578-8.053c-5.086-2.628-8.437-7.651-9.093-13.34z"
    fill="#ffeea6"
  />
  <path
    d="m212.575 154.545-1.681 13.239-17.226-28.629 13.657 6.071c3.615 1.606 5.749 5.394 5.25 9.319z"
    fill="#ee442b"
  />
  <circle cx="142.34" cy="126.932" fill="#050c04" r="16.851" />
  <path d="m69.139 55.27 7.457-29.827 22.978 21.83z" fill="#ee442b" />
  <path
    d="m135.709 148.358h4.554v48.361h-4.554z"
    fill="#050c04"
    transform="matrix(.0926 -.9957 .9957 .0926 -46.591 293.9514)"
  />
  <path
    d="m136.162 167.34h4.554v47.781h-4.554z"
    fill="#050c04"
    transform="matrix(-.1866 -.9824 .9824 -.1866 -23.5956 362.9263)"
  />
  <circle cx="118.34" cy="254.908" fill="#ffc1a3" r="18.772" />
  <path d="m147.25 285.267-20.692-8.734-2.723 6.449 25.129 10.607z" fill="#050c04" />
  <circle cx="141.114" cy="376.685" fill="#ee442b" r="8.102" />
  <circle cx="145.464" cy="400.212" fill="#ee442b" r="8.102" />
  <circle cx="154.979" cy="423.74" fill="#ee442b" r="8.102" />
  <path
    d="m301.631 221.54-3.488 6.068c.115.067 10.546 6.922 11.621 35.297h6.993c-1.213-32.937-14.511-41.011-15.126-41.365z"
    fill="#050c04"
  />
  <path
    d="m286.303 222.707-3.488 6.068c.114.066 10.254 6.739 11.567 34.13h7.005c-1.476-31.974-14.476-39.849-15.084-40.198z"
    fill="#050c04"
  />
  <path
    d="m136.329 444.599-2.516 6.532c.854.337 17.848 7.394 23.672 34.588h7.132c-6.326-32.302-27.259-40.727-28.288-41.12z"
    fill="#050c04"
  />
</svg>
